<svg id="Layer_1" data-name="Layer 1" xmlns="http://www.w3.org/2000/svg" viewBox="0 0 591.23 200.06"><defs><style>.cls-1{fill:#231f20;}</style></defs><path class="cls-1" d="M973.12,599.09V399h40V599.09Z" transform="translate(-578.77 -399.03)"/><path class="cls-1" d="M718.82,542h49.33q-13,26.65-37,41.82A96.38,96.38,0,0,1,678.56,599q-41.4,0-70.59-29.2t-29.2-70.6q0-41.67,29.2-70.87t70.59-29.21q42.24,0,71.73,30.91l-29.77,28.35q-19.28-18.15-42-18.15-24.66,0-42,17.16T619.31,499.2q0,24.39,17.29,41.82t41.68,17.44A56.3,56.3,0,0,0,718.82,542Zm-40.26-22.68V479.64h97a113.88,113.88,0,0,1,2,19.85,121.16,121.16,0,0,1-2,19.84Z" transform="translate(-578.77 -399.03)"/><rect class="cls-1" x="221.29" y="0.44" width="42.87" height="199.18"/><path class="cls-1" d="M867.05,520.05v-42h14q12.21,0,17.87-2.38,10.41-4.47,10.42-16.08,0-9.83-7.45-14.59-5.36-3.57-18.75-3.57H867.05v-42h13.4q33.64,0,50,14,21.13,17.87,21.13,46.15,0,28.89-22,47-16.37,13.41-46.15,13.4Z" transform="translate(-578.77 -399.03)"/><path class="cls-1" d="M905.46,598.65l-21.74-61q25.6-.3,42.28-9.23l24.71,70.26Z" transform="translate(-578.77 -399.03)"/><rect class="cls-1" x="456.96" y="0.44" width="134.28" height="41.68"/><path class="cls-1" d="M1081.57,598.65l-.36-133.18q25.07,5.23,43.27.1l0,133.08Z" transform="translate(-578.77 -399.03)"/></svg>